<svg xmlns="http://www.w3.org/2000/svg" height="40" viewBox="0 -960 960 960" width="40"><path d="M249.333-252Q303-288.667 358.167-310 413.333-331.333 480-331.333T601.833-310Q657-288.667 710.667-252 753-295.667 778.5-353.391 804-411.115 804-480q0-135-94.5-229.5T480-804q-135 0-229.5 94.5T156-480q0 68.885 25.5 126.609Q207-295.667 249.333-252Zm230.499-216q-47.832 0-80.499-32.834-32.666-32.834-32.666-80.667 0-47.832 32.834-80.499 32.834-32.667 80.667-32.667 47.832 0 80.499 32.834 32.666 32.835 32.666 80.667 0 47.833-32.834 80.499Q527.665-468 479.832-468Zm.48 336q-73.312 0-136.62-27-63.309-27-110.5-74.333Q186-280.667 159-343.677q-27-63.011-27-136.167t27-136.323q27-63.166 74.333-110.5Q280.667-774 343.677-801q63.011-27 136.167-27t136.323 27q63.166 27 110.5 74.333Q774-679.333 801-616.145t27 135.833q0 73.312-27 136.62-27 63.309-74.333 110.5Q679.333-186 616.145-159q-63.188 27-135.833 27ZM480-156q56.667 0 113.167-20.5t98.166-58.167q-41.666-33.333-95.5-53Q542-307.333 480-307.333t-116.333 19.166q-54.334 19.167-94.334 53.5 41 37.667 97.5 58.167T480-156Zm.093-336q37.907 0 63.574-25.76 25.666-25.759 25.666-63.666T543.574-645q-25.76-25.667-63.667-25.667t-63.574 25.76q-25.666 25.76-25.666 63.667t25.759 63.573Q442.186-492 480.093-492ZM480-581.333Zm0 349.666Z"/></svg>